<svg width="21" height="21" viewBox="0 0 21 21" fill="none" xmlns="http://www.w3.org/2000/svg">
<path d="M6.42676 9.73899C6.33498 9.61917 6.19949 9.54059 6.04991 9.52044C5.90034 9.50029 5.74888 9.54022 5.62867 9.63147C5.55795 9.68724 5.50091 9.75843 5.46189 9.83961L0.561756 19.6426C0.492353 19.7816 0.480953 19.9424 0.530062 20.0897C0.579171 20.237 0.68477 20.3588 0.823647 20.4283C0.904824 20.4694 0.994569 20.4906 1.08554 20.4903H7.91265C8.022 20.4931 8.12979 20.464 8.22282 20.4064C8.31585 20.3489 8.39009 20.2655 8.43643 20.1664C9.90992 17.123 9.01673 12.4957 6.42676 9.73899Z" fill="url(#paint0_linear_580_3497)"/>
<path d="M10.0284 0.818104C8.80686 2.69787 8.09495 4.8629 7.96253 7.10079C7.8301 9.33868 8.28172 11.5726 9.27306 13.5833L12.5646 20.1664C12.6133 20.2637 12.688 20.3455 12.7805 20.4027C12.873 20.46 12.9796 20.4903 13.0884 20.4903H19.9141C19.9911 20.4905 20.0674 20.4755 20.1385 20.4461C20.2097 20.4167 20.2743 20.3736 20.3288 20.3191C20.3832 20.2647 20.4264 20.2001 20.4557 20.1289C20.4851 20.0577 20.5001 19.9815 20.5 19.9045C20.5 19.8137 20.4793 19.7241 20.4393 19.6426L11.025 0.815347C10.9803 0.721006 10.9097 0.641288 10.8215 0.585465C10.7333 0.529642 10.6311 0.500008 10.5267 0.500008C10.4223 0.500008 10.3201 0.529642 10.2319 0.585465C10.1436 0.641288 10.0731 0.721006 10.0284 0.815347V0.818104Z" fill="#2684FF"/>
<defs>
<linearGradient id="paint0_linear_580_3497" x1="9.12424" y1="11.2373" x2="3.94981" y2="20.1995" gradientUnits="userSpaceOnUse">
<stop stop-color="#0052CC"/>
<stop offset="0.92" stop-color="#2684FF"/>
</linearGradient>
</defs>
</svg>
