<svg width="21" height="20" viewBox="0 0 21 20" fill="none" xmlns="http://www.w3.org/2000/svg">
<g clip-path="url(#clip0_580_3517)">
<path d="M4.04167 4.19617e-05H16.9583C18.9167 4.19617e-05 20.5 1.58338 20.5 3.54171V15.9584C20.5 17.9167 18.9167 19.5 16.9583 19.5H4.04167C2.08333 19.5 0.5 17.9167 0.5 15.9584V3.54171C0.5 1.58338 2.08333 4.19617e-05 4.04167 4.19617e-05Z" fill="#470137"/>
<path d="M11.0164 5.12426L8.51636 9.24926L11.183 13.6243C11.1997 13.6576 11.208 13.6909 11.1997 13.7243C11.1914 13.7576 11.158 13.7326 11.108 13.7409H9.19969C9.06636 13.7409 8.97469 13.7326 8.91636 13.6493C8.74136 13.2993 8.55802 12.9576 8.38302 12.6076C8.20802 12.2659 8.01636 11.9159 7.81636 11.5576C7.61636 11.1993 7.41636 10.8409 7.21636 10.4743H7.19969C7.02469 10.8326 6.83302 11.1909 6.64136 11.5493C6.44969 11.9076 6.25802 12.2659 6.07469 12.6159C5.88302 12.9659 5.69136 13.3243 5.49969 13.6659C5.46636 13.7493 5.39969 13.7576 5.30802 13.7576H3.47469C3.44136 13.7576 3.41636 13.7743 3.41636 13.7326C3.40802 13.6993 3.41636 13.6659 3.43302 13.6409L6.02469 9.39093L3.49969 5.11593C3.47469 5.0826 3.46636 5.04926 3.48302 5.0326C3.49969 5.0076 3.53302 4.99926 3.56636 4.99926H5.45802C5.49969 4.99926 5.54136 5.0076 5.57469 5.01593C5.60802 5.0326 5.63302 5.0576 5.65802 5.09093C5.81636 5.44926 5.99969 5.8076 6.19136 6.16593C6.39136 6.52426 6.58302 6.87426 6.79136 7.22426C6.99136 7.57426 7.17469 7.92426 7.34969 8.2826H7.36636C7.54136 7.91593 7.72469 7.5576 7.90802 7.2076C8.09136 6.8576 8.28302 6.5076 8.47469 6.1576C8.66636 5.8076 8.84969 5.44926 9.03302 5.1076C9.04136 5.07426 9.05802 5.04093 9.08302 5.02426C9.11636 5.0076 9.14969 4.99926 9.19136 5.0076H10.9497C10.9914 4.99926 11.033 5.02426 11.0414 5.06593C11.0497 5.07426 11.033 5.1076 11.0164 5.12426Z" fill="#FF61F6"/>
<path d="M14.8661 13.9167C14.2494 13.925 13.6327 13.8 13.0744 13.5417C12.5494 13.3 12.1161 12.9 11.8161 12.4083C11.5077 11.9 11.3577 11.2667 11.3577 10.5083C11.3494 9.89167 11.5077 9.28334 11.8161 8.75C12.1327 8.20834 12.5911 7.75834 13.1411 7.45834C13.7244 7.13334 14.4244 6.975 15.2494 6.975C15.2911 6.975 15.3494 6.975 15.4244 6.98334C15.4994 6.99167 15.5827 6.99167 15.6827 7V4.36667C15.6827 4.30834 15.7077 4.275 15.7661 4.275H17.4577C17.4994 4.26667 17.5327 4.3 17.5411 4.33334C17.5411 4.34167 17.5411 4.35 17.5411 4.35V12.2833C17.5411 12.4333 17.5494 12.6 17.5577 12.7833C17.5744 12.9583 17.5827 13.125 17.5911 13.2667C17.5911 13.325 17.5661 13.375 17.5077 13.4C17.0744 13.5833 16.6161 13.7167 16.1494 13.8C15.7244 13.875 15.2994 13.9167 14.8661 13.9167ZM15.6827 12.25V8.58334C15.6077 8.56667 15.5327 8.55 15.4577 8.54167C15.3661 8.53334 15.2744 8.525 15.1827 8.525C14.8577 8.525 14.5327 8.59167 14.2411 8.74167C13.9577 8.88334 13.7161 9.09167 13.5327 9.35834C13.3494 9.625 13.2577 9.98334 13.2577 10.4167C13.2494 10.7083 13.2994 11 13.3994 11.275C13.4827 11.5 13.6077 11.7 13.7744 11.8667C13.9327 12.0167 14.1244 12.1333 14.3411 12.2C14.5661 12.275 14.7994 12.3083 15.0327 12.3083C15.1577 12.3083 15.2744 12.3 15.3827 12.2917C15.4911 12.3 15.5827 12.2833 15.6827 12.25Z" fill="#FF61F6"/>
</g>
<defs>
<clipPath id="clip0_580_3517">
<rect x="0.5" y="4.19617e-05" width="20" height="19.5" fill="white"/>
</clipPath>
</defs>
</svg>
